<svg xmlns="http://www.w3.org/2000/svg" viewBox="0 0 512 512">
  <rect width="512" height="512" rx="96" fill="#1a232c"/>
  <path d="M128 200c0-39.8 32.2-72 72-72h32v64h-32c-4.4 0-8 3.6-8 8v112c0 4.4 3.6 8 8 8h32v64h-32c-39.8 0-72-32.2-72-72V200z" fill="#38c1a3"/>
  <path d="M248 128h16c66.3 0 120 53.7 120 120v16c0 66.3-53.7 120-120 120h-16v-64h16c31.1 0 56-24.9 56-56v-16c0-31.1-24.9-56-56-56h-16v-64z" fill="#f6b246"/>
  <rect x="232" y="232" width="48" height="48" rx="10" fill="#f5f7f9"/>
</svg>
